<svg xmlns="http://www.w3.org/2000/svg" width="845" height="368" viewBox="0 0 845 368"><g transform="translate(40.0000 238.4000) scale(0.281020 -0.281020)"><path d="M68 0V706H180L458 273H401L678 706H791V0H634V441L662 434L481 152H377L197 434L224 441V0Z" fill="#FFFFFF"/></g><g transform="translate(281.1150 238.4000) scale(0.281020 -0.281020)"><path d="M54 0V486H207V0Z" fill="#FFFFFF"/></g><g transform="translate(354.4612 238.4000) scale(0.281020 -0.281020)"><path d="M54 0V726H207V0Z" fill="#FFFFFF"/></g><g transform="translate(427.8074 238.4000) scale(0.281020 -0.281020)"><path d="M294 -11Q215 -11 153.5 21.5Q92 54 57.0 112.0Q22 170 22 243Q22 316 56.5 373.5Q91 431 150.0 464.0Q209 497 283 497Q355 497 410.0 466.0Q465 435 496.5 380.0Q528 325 528 254Q528 241 526.5 226.5Q525 212 521 193L102 192V297L456 298L390 254Q389 296 377.0 323.5Q365 351 341.5 365.5Q318 380 284 380Q248 380 221.5 363.5Q195 347 180.5 317.0Q166 287 166 244Q166 201 181.5 170.5Q197 140 225.5 123.5Q254 107 293 107Q329 107 358.0 119.5Q387 132 409 157L493 73Q457 31 406.0 10.0Q355 -11 294 -11Z" fill="#FFFFFF"/></g><g transform="translate(581.8062 238.4000) scale(0.281020 -0.281020)"><path d="M54 0V726H207V0Z" fill="#FFFFFF"/></g><g transform="translate(655.1524 238.4000) scale(0.281020 -0.281020)"><path d="M204 -2 4 486H169L296 99H235L365 486H530L322 -2ZM79 -205 225 110 322 -2 236 -205Z" fill="#FFFFFF"/></g><circle cx="317.788" cy="59.390" r="23.606" fill="#FFB900"/><rect x="40.000" y="274.112" width="765.217" height="8.928" rx="4.464" fill="#FFFFFF" opacity="0.18"/><rect x="40.000" y="274.112" width="244.869" height="8.928" rx="4.464" fill="#FFFFFF"/></svg>